<svg width="420" height="190" viewBox="0 0 420 190" fill="none" xmlns="http://www.w3.org/2000/svg">
<path d="M14.304 15.576C15.4987 15.7893 16.512 16.4187 17.344 17.464C18.176 18.5093 18.592 19.6933 18.592 21.016C18.592 22.1467 18.2933 23.1707 17.696 24.088C17.12 24.984 16.2773 25.6987 15.168 26.232C14.0587 26.744 12.768 27 11.296 27H2.4V4.76H10.88C12.3947 4.76 13.696 5.016 14.784 5.528C15.872 6.04 16.6933 6.73333 17.248 7.608C17.8027 8.46133 18.08 9.42133 18.08 10.488C18.08 11.768 17.7387 12.8347 17.056 13.688C16.3733 14.5413 15.456 15.1707 14.304 15.576ZM6.048 14.104H10.56C11.7547 14.104 12.6827 13.8373 13.344 13.304C14.0267 12.7493 14.368 11.96 14.368 10.936C14.368 9.93333 14.0267 9.15467 13.344 8.6C12.6827 8.024 11.7547 7.736 10.56 7.736H6.048V14.104ZM10.976 24.024C12.2133 24.024 13.184 23.7253 13.888 23.128C14.592 22.5307 14.944 21.6987 14.944 20.632C14.944 19.544 14.5707 18.68 13.824 18.04C13.0773 17.4 12.0853 17.08 10.848 17.08H6.048V24.024H10.976ZM38.7163 17.752C38.7163 18.4133 38.6736 19.0107 38.5883 19.544H25.1163C25.2229 20.952 25.7456 22.0827 26.6843 22.936C27.6229 23.7893 28.7749 24.216 30.1403 24.216C32.1029 24.216 33.4896 23.3947 34.3003 21.752H38.2362C37.7029 23.3733 36.7323 24.7067 35.3243 25.752C33.9376 26.776 32.2096 27.288 30.1403 27.288C28.4549 27.288 26.9403 26.9147 25.5963 26.168C24.2736 25.4 23.2283 24.3333 22.4603 22.968C21.7136 21.5813 21.3403 19.9813 21.3403 18.168C21.3403 16.3547 21.7029 14.7653 22.4283 13.4C23.1749 12.0133 24.2096 10.9467 25.5323 10.2C26.8763 9.45333 28.4123 9.08 30.1403 9.08C31.8043 9.08 33.2869 9.44267 34.5883 10.168C35.8896 10.8933 36.9029 11.9173 37.6283 13.24C38.3536 14.5413 38.7163 16.0453 38.7163 17.752ZM34.9083 16.6C34.8869 15.256 34.4069 14.1787 33.4683 13.368C32.5296 12.5573 31.3669 12.152 29.9803 12.152C28.7216 12.152 27.6443 12.5573 26.7483 13.368C25.8523 14.1573 25.3189 15.2347 25.1483 16.6H34.9083ZM48.7063 27.288C47.3196 27.288 46.0716 27.0427 44.9623 26.552C43.8743 26.04 43.0103 25.3573 42.3703 24.504C41.7303 23.6293 41.3889 22.6587 41.3463 21.592H45.1223C45.1863 22.3387 45.5383 22.968 46.1783 23.48C46.8396 23.9707 47.6609 24.216 48.6423 24.216C49.6663 24.216 50.4556 24.024 51.0103 23.64C51.5863 23.2347 51.8743 22.7227 51.8743 22.104C51.8743 21.4427 51.5543 20.952 50.9143 20.632C50.2956 20.312 49.3036 19.96 47.9383 19.576C46.6156 19.2133 45.5383 18.8613 44.7063 18.52C43.8743 18.1787 43.1489 17.656 42.5303 16.952C41.9329 16.248 41.6343 15.32 41.6343 14.168C41.6343 13.2293 41.9116 12.376 42.4663 11.608C43.0209 10.8187 43.8103 10.2 44.8343 9.752C45.8796 9.304 47.0743 9.08 48.4183 9.08C50.4236 9.08 52.0343 9.592 53.2503 10.616C54.4876 11.6187 55.1489 12.9947 55.2343 14.744H51.5863C51.5223 13.9547 51.2023 13.3253 50.6263 12.856C50.0503 12.3867 49.2716 12.152 48.2903 12.152C47.3303 12.152 46.5943 12.3333 46.0823 12.696C45.5703 13.0587 45.3143 13.5387 45.3143 14.136C45.3143 14.6053 45.4849 15 45.8263 15.32C46.1676 15.64 46.5836 15.896 47.0743 16.088C47.5649 16.2587 48.2903 16.4827 49.2503 16.76C50.5303 17.1013 51.5756 17.4533 52.3863 17.816C53.2183 18.1573 53.9329 18.6693 54.5303 19.352C55.1276 20.0347 55.4369 20.9413 55.4583 22.072C55.4583 23.0747 55.1809 23.9707 54.6263 24.76C54.0716 25.5493 53.2823 26.168 52.2583 26.616C51.2556 27.064 50.0716 27.288 48.7063 27.288ZM65.8 27.288C64.4133 27.288 63.1653 27.0427 62.056 26.552C60.968 26.04 60.104 25.3573 59.464 24.504C58.824 23.6293 58.4827 22.6587 58.44 21.592H62.216C62.28 22.3387 62.632 22.968 63.272 23.48C63.9333 23.9707 64.7547 24.216 65.736 24.216C66.76 24.216 67.5493 24.024 68.104 23.64C68.68 23.2347 68.968 22.7227 68.968 22.104C68.968 21.4427 68.648 20.952 68.008 20.632C67.3893 20.312 66.3973 19.96 65.032 19.576C63.7093 19.2133 62.632 18.8613 61.8 18.52C60.968 18.1787 60.2427 17.656 59.624 16.952C59.0267 16.248 58.728 15.32 58.728 14.168C58.728 13.2293 59.0053 12.376 59.56 11.608C60.1147 10.8187 60.904 10.2 61.928 9.752C62.9733 9.304 64.168 9.08 65.512 9.08C67.5173 9.08 69.128 9.592 70.344 10.616C71.5813 11.6187 72.2427 12.9947 72.328 14.744H68.68C68.616 13.9547 68.296 13.3253 67.72 12.856C67.144 12.3867 66.3653 12.152 65.384 12.152C64.424 12.152 63.688 12.3333 63.176 12.696C62.664 13.0587 62.408 13.5387 62.408 14.136C62.408 14.6053 62.5787 15 62.92 15.32C63.2613 15.64 63.6773 15.896 64.168 16.088C64.6587 16.2587 65.384 16.4827 66.344 16.76C67.624 17.1013 68.6693 17.4533 69.48 17.816C70.312 18.1573 71.0267 18.6693 71.624 19.352C72.2213 20.0347 72.5307 20.9413 72.552 22.072C72.552 23.0747 72.2747 23.9707 71.72 24.76C71.1653 25.5493 70.376 26.168 69.352 26.616C68.3493 27.064 67.1653 27.288 65.8 27.288ZM78.3498 7.032C77.6884 7.032 77.1338 6.808 76.6858 6.36C76.2378 5.912 76.0138 5.35733 76.0138 4.696C76.0138 4.03467 76.2378 3.48 76.6858 3.032C77.1338 2.584 77.6884 2.36 78.3498 2.36C78.9898 2.36 79.5338 2.584 79.9818 3.032C80.4298 3.48 80.6538 4.03467 80.6538 4.696C80.6538 5.35733 80.4298 5.912 79.9818 6.36C79.5338 6.808 78.9898 7.032 78.3498 7.032ZM80.1418 9.368V27H76.4938V9.368H80.1418ZM101.091 17.752C101.091 18.4133 101.049 19.0107 100.963 19.544H87.4913C87.5979 20.952 88.1206 22.0827 89.0593 22.936C89.9979 23.7893 91.1499 24.216 92.5153 24.216C94.4779 24.216 95.8646 23.3947 96.6753 21.752H100.611C100.078 23.3733 99.1073 24.7067 97.6993 25.752C96.3126 26.776 94.5846 27.288 92.5153 27.288C90.8299 27.288 89.3153 26.9147 87.9713 26.168C86.6486 25.4 85.6033 24.3333 84.8353 22.968C84.0886 21.5813 83.7153 19.9813 83.7153 18.168C83.7153 16.3547 84.0779 14.7653 84.8033 13.4C85.5499 12.0133 86.5846 10.9467 87.9073 10.2C89.2513 9.45333 90.7873 9.08 92.5153 9.08C94.1793 9.08 95.6619 9.44267 96.9633 10.168C98.2646 10.8933 99.2779 11.9173 100.003 13.24C100.729 14.5413 101.091 16.0453 101.091 17.752ZM97.2833 16.6C97.2619 15.256 96.7819 14.1787 95.8433 13.368C94.9046 12.5573 93.7419 12.152 92.3553 12.152C91.0966 12.152 90.0193 12.5573 89.1233 13.368C88.2273 14.1573 87.6939 15.2347 87.5233 16.6H97.2833ZM111.778 15.832C111.778 13.656 112.279 11.704 113.282 9.976C114.306 8.248 115.682 6.904 117.41 5.944C119.159 4.96266 121.068 4.472 123.138 4.472C125.506 4.472 127.607 5.05866 129.442 6.232C131.298 7.384 132.642 9.02667 133.474 11.16H129.09C128.514 9.98667 127.714 9.112 126.69 8.536C125.666 7.96 124.482 7.672 123.138 7.672C121.666 7.672 120.354 8.00267 119.202 8.664C118.05 9.32533 117.143 10.2747 116.482 11.512C115.842 12.7493 115.522 14.1893 115.522 15.832C115.522 17.4747 115.842 18.9147 116.482 20.152C117.143 21.3893 118.05 22.3493 119.202 23.032C120.354 23.6933 121.666 24.024 123.138 24.024C124.482 24.024 125.666 23.736 126.69 23.16C127.714 22.584 128.514 21.7093 129.09 20.536H133.474C132.642 22.6693 131.298 24.312 129.442 25.464C127.607 26.616 125.506 27.192 123.138 27.192C121.047 27.192 119.138 26.712 117.41 25.752C115.682 24.7707 114.306 23.416 113.282 21.688C112.279 19.96 111.778 18.008 111.778 15.832ZM145.392 27.288C143.728 27.288 142.224 26.9147 140.88 26.168C139.536 25.4 138.48 24.3333 137.712 22.968C136.944 21.5813 136.56 19.9813 136.56 18.168C136.56 16.376 136.954 14.7867 137.744 13.4C138.533 12.0133 139.61 10.9467 140.976 10.2C142.341 9.45333 143.866 9.08 145.552 9.08C147.237 9.08 148.762 9.45333 150.128 10.2C151.493 10.9467 152.57 12.0133 153.36 13.4C154.149 14.7867 154.544 16.376 154.544 18.168C154.544 19.96 154.138 21.5493 153.328 22.936C152.517 24.3227 151.408 25.4 150 26.168C148.613 26.9147 147.077 27.288 145.392 27.288ZM145.392 24.12C146.33 24.12 147.205 23.896 148.016 23.448C148.848 23 149.52 22.328 150.032 21.432C150.544 20.536 150.8 19.448 150.8 18.168C150.8 16.888 150.554 15.8107 150.064 14.936C149.573 14.04 148.922 13.368 148.112 12.92C147.301 12.472 146.426 12.248 145.488 12.248C144.549 12.248 143.674 12.472 142.864 12.92C142.074 13.368 141.445 14.04 140.976 14.936C140.506 15.8107 140.272 16.888 140.272 18.168C140.272 20.0667 140.752 21.5387 141.712 22.584C142.693 23.608 143.92 24.12 145.392 24.12ZM161.798 3.32V27H158.15V3.32H161.798ZM182.748 17.752C182.748 18.4133 182.705 19.0107 182.62 19.544H169.148C169.254 20.952 169.777 22.0827 170.716 22.936C171.654 23.7893 172.806 24.216 174.172 24.216C176.134 24.216 177.521 23.3947 178.332 21.752H182.267C181.734 23.3733 180.764 24.7067 179.356 25.752C177.969 26.776 176.241 27.288 174.172 27.288C172.486 27.288 170.972 26.9147 169.628 26.168C168.305 25.4 167.26 24.3333 166.492 22.968C165.745 21.5813 165.372 19.9813 165.372 18.168C165.372 16.3547 165.734 14.7653 166.46 13.4C167.206 12.0133 168.241 10.9467 169.564 10.2C170.908 9.45333 172.444 9.08 174.172 9.08C175.836 9.08 177.318 9.44267 178.62 10.168C179.921 10.8933 180.934 11.9173 181.66 13.24C182.385 14.5413 182.748 16.0453 182.748 17.752ZM178.94 16.6C178.918 15.256 178.438 14.1787 177.5 13.368C176.561 12.5573 175.398 12.152 174.012 12.152C172.753 12.152 171.676 12.5573 170.78 13.368C169.884 14.1573 169.35 15.2347 169.18 16.6H178.94ZM207.682 9.08C209.068 9.08 210.306 9.368 211.394 9.944C212.503 10.52 213.367 11.3733 213.986 12.504C214.626 13.6347 214.946 15 214.946 16.6V27H211.33V17.144C211.33 15.5653 210.935 14.36 210.146 13.528C209.356 12.6747 208.279 12.248 206.914 12.248C205.548 12.248 204.46 12.6747 203.65 13.528C202.86 14.36 202.466 15.5653 202.466 17.144V27H198.85V17.144C198.85 15.5653 198.455 14.36 197.666 13.528C196.876 12.6747 195.799 12.248 194.434 12.248C193.068 12.248 191.98 12.6747 191.17 13.528C190.38 14.36 189.986 15.5653 189.986 17.144V27H186.338V9.368H189.986V11.384C190.583 10.6587 191.34 10.0933 192.258 9.688C193.175 9.28267 194.156 9.08 195.202 9.08C196.61 9.08 197.868 9.37867 198.978 9.976C200.087 10.5733 200.94 11.4373 201.538 12.568C202.071 11.5013 202.903 10.6587 204.034 10.04C205.164 9.4 206.38 9.08 207.682 9.08ZM218.372 18.104C218.372 16.3333 218.734 14.7653 219.46 13.4C220.206 12.0347 221.209 10.9787 222.468 10.232C223.748 9.464 225.156 9.08 226.692 9.08C228.078 9.08 229.284 9.35733 230.308 9.912C231.353 10.4453 232.185 11.1173 232.804 11.928V9.368H236.484V27H232.804V24.376C232.185 25.208 231.342 25.9013 230.276 26.456C229.209 27.0107 227.993 27.288 226.628 27.288C225.113 27.288 223.726 26.904 222.468 26.136C221.209 25.3467 220.206 24.2587 219.46 22.872C218.734 21.464 218.372 19.8747 218.372 18.104ZM232.804 18.168C232.804 16.952 232.548 15.896 232.036 15C231.545 14.104 230.894 13.4213 230.084 12.952C229.273 12.4827 228.398 12.248 227.46 12.248C226.521 12.248 225.646 12.4827 224.836 12.952C224.025 13.4 223.364 14.072 222.852 14.968C222.361 15.8427 222.116 16.888 222.116 18.104C222.116 19.32 222.361 20.3867 222.852 21.304C223.364 22.2213 224.025 22.9253 224.836 23.416C225.668 23.8853 226.542 24.12 227.46 24.12C228.398 24.12 229.273 23.8853 230.084 23.416C230.894 22.9467 231.545 22.264 232.036 21.368C232.548 20.4507 232.804 19.384 232.804 18.168ZM250.171 9.08C251.558 9.08 252.795 9.368 253.883 9.944C254.992 10.52 255.856 11.3733 256.475 12.504C257.094 13.6347 257.403 15 257.403 16.6V27H253.787V17.144C253.787 15.5653 253.392 14.36 252.603 13.528C251.814 12.6747 250.736 12.248 249.371 12.248C248.006 12.248 246.918 12.6747 246.107 13.528C245.318 14.36 244.923 15.5653 244.923 17.144V27H241.275V9.368H244.923V11.384C245.52 10.6587 246.278 10.0933 247.195 9.688C248.134 9.28267 249.126 9.08 250.171 9.08Z" fill="#212121"/>
<path d="M0.592 52.416C0.592 51.328 0.842667 50.352 1.344 49.488C1.856 48.624 2.544 47.952 3.408 47.472C4.28267 46.9813 5.23733 46.736 6.272 46.736C7.456 46.736 8.50667 47.0293 9.424 47.616C10.352 48.192 11.024 49.0133 11.44 50.08H9.248C8.96 49.4933 8.56 49.056 8.048 48.768C7.536 48.48 6.944 48.336 6.272 48.336C5.536 48.336 4.88 48.5013 4.304 48.832C3.728 49.1627 3.27467 49.6373 2.944 50.256C2.624 50.8747 2.464 51.5947 2.464 52.416C2.464 53.2373 2.624 53.9573 2.944 54.576C3.27467 55.1947 3.728 55.6747 4.304 56.016C4.88 56.3467 5.536 56.512 6.272 56.512C6.944 56.512 7.536 56.368 8.048 56.08C8.56 55.792 8.96 55.3547 9.248 54.768H11.44C11.024 55.8347 10.352 56.656 9.424 57.232C8.50667 57.808 7.456 58.096 6.272 58.096C5.22667 58.096 4.272 57.856 3.408 57.376C2.544 56.8853 1.856 56.208 1.344 55.344C0.842667 54.48 0.592 53.504 0.592 52.416ZM14.503 48.016C14.1723 48.016 13.895 47.904 13.671 47.68C13.447 47.456 13.335 47.1787 13.335 46.848C13.335 46.5173 13.447 46.24 13.671 46.016C13.895 45.792 14.1723 45.68 14.503 45.68C14.823 45.68 15.095 45.792 15.319 46.016C15.543 46.24 15.655 46.5173 15.655 46.848C15.655 47.1787 15.543 47.456 15.319 47.68C15.095 47.904 14.823 48.016 14.503 48.016ZM15.399 49.184V58H13.575V49.184H15.399ZM21.2018 56.368L23.6978 49.184H25.6337L22.2738 58H20.0978L16.7538 49.184H18.7057L21.2018 56.368ZM27.9405 48.016C27.6098 48.016 27.3325 47.904 27.1085 47.68C26.8845 47.456 26.7725 47.1787 26.7725 46.848C26.7725 46.5173 26.8845 46.24 27.1085 46.016C27.3325 45.792 27.6098 45.68 27.9405 45.68C28.2605 45.68 28.5325 45.792 28.7565 46.016C28.9805 46.24 29.0925 46.5173 29.0925 46.848C29.0925 47.1787 28.9805 47.456 28.7565 47.68C28.5325 47.904 28.2605 48.016 27.9405 48.016ZM28.8365 49.184V58H27.0125V49.184H28.8365ZM33.0553 46.16V58H31.2313V46.16H33.0553ZM46.3103 55.728H41.6543L40.8543 58H38.9503L42.9343 46.864H45.0463L49.0303 58H47.1103L46.3103 55.728ZM45.7983 54.24L43.9903 49.072L42.1663 54.24H45.7983ZM54.1705 56.368L56.6665 49.184H58.6025L55.2425 58H53.0665L49.7225 49.184H51.6745L54.1705 56.368ZM60.9093 48.016C60.5786 48.016 60.3013 47.904 60.0773 47.68C59.8533 47.456 59.7413 47.1787 59.7413 46.848C59.7413 46.5173 59.8533 46.24 60.0773 46.016C60.3013 45.792 60.5786 45.68 60.9093 45.68C61.2293 45.68 61.5013 45.792 61.7253 46.016C61.9493 46.24 62.0613 46.5173 62.0613 46.848C62.0613 47.1787 61.9493 47.456 61.7253 47.68C61.5013 47.904 61.2293 48.016 60.9093 48.016ZM61.8053 49.184V58H59.9813V49.184H61.8053ZM63.592 53.552C63.592 52.6667 63.7733 51.8827 64.136 51.2C64.5093 50.5173 65.0107 49.9893 65.64 49.616C66.28 49.232 66.984 49.04 67.752 49.04C68.4453 49.04 69.048 49.1787 69.56 49.456C70.0827 49.7227 70.4987 50.0587 70.808 50.464V49.184H72.648V58H70.808V56.688C70.4987 57.104 70.0773 57.4507 69.544 57.728C69.0107 58.0053 68.4027 58.144 67.72 58.144C66.9627 58.144 66.2693 57.952 65.64 57.568C65.0107 57.1733 64.5093 56.6293 64.136 55.936C63.7733 55.232 63.592 54.4373 63.592 53.552ZM70.808 53.584C70.808 52.976 70.68 52.448 70.424 52C70.1787 51.552 69.8533 51.2107 69.448 50.976C69.0427 50.7413 68.6053 50.624 68.136 50.624C67.6667 50.624 67.2293 50.7413 66.824 50.976C66.4187 51.2 66.088 51.536 65.832 51.984C65.5867 52.4213 65.464 52.944 65.464 53.552C65.464 54.16 65.5867 54.6933 65.832 55.152C66.088 55.6107 66.4187 55.9627 66.824 56.208C67.24 56.4427 67.6773 56.56 68.136 56.56C68.6053 56.56 69.0427 56.4427 69.448 56.208C69.8533 55.9733 70.1787 55.632 70.424 55.184C70.68 54.7253 70.808 54.192 70.808 53.584ZM77.1718 50.672V55.552C77.1718 55.8827 77.2464 56.1227 77.3958 56.272C77.5558 56.4107 77.8224 56.48 78.1958 56.48H79.3158V58H77.8758C77.0544 58 76.4251 57.808 75.9878 57.424C75.5504 57.04 75.3318 56.416 75.3318 55.552V50.672H74.2918V49.184H75.3318V46.992H77.1718V49.184H79.3158V50.672H77.1718ZM84.8209 58.144C83.9889 58.144 83.2369 57.9573 82.5649 57.584C81.8929 57.2 81.3649 56.6667 80.9809 55.984C80.5969 55.2907 80.4049 54.4907 80.4049 53.584C80.4049 52.688 80.6022 51.8933 80.9969 51.2C81.3915 50.5067 81.9302 49.9733 82.6129 49.6C83.2955 49.2267 84.0582 49.04 84.9009 49.04C85.7435 49.04 86.5062 49.2267 87.1889 49.6C87.8715 49.9733 88.4102 50.5067 88.8049 51.2C89.1995 51.8933 89.3969 52.688 89.3969 53.584C89.3969 54.48 89.1942 55.2747 88.7889 55.968C88.3835 56.6613 87.8289 57.2 87.1249 57.584C86.4315 57.9573 85.6635 58.144 84.8209 58.144ZM84.8209 56.56C85.2902 56.56 85.7275 56.448 86.1329 56.224C86.5489 56 86.8849 55.664 87.1409 55.216C87.3969 54.768 87.5249 54.224 87.5249 53.584C87.5249 52.944 87.4022 52.4053 87.1569 51.968C86.9115 51.52 86.5862 51.184 86.1809 50.96C85.7755 50.736 85.3382 50.624 84.8689 50.624C84.3995 50.624 83.9622 50.736 83.5569 50.96C83.1622 51.184 82.8475 51.52 82.6129 51.968C82.3782 52.4053 82.2609 52.944 82.2609 53.584C82.2609 54.5333 82.5009 55.2693 82.9809 55.792C83.4715 56.304 84.0849 56.56 84.8209 56.56ZM93.024 50.464C93.2907 50.016 93.6427 49.6693 94.08 49.424C94.528 49.168 95.056 49.04 95.664 49.04V50.928H95.2C94.4853 50.928 93.9413 51.1093 93.568 51.472C93.2053 51.8347 93.024 52.464 93.024 53.36V58H91.2V49.184H93.024V50.464Z" fill="#212121" fill-opacity="0.7"/>
<g opacity="0.7">
<rect x="13.0676" y="178.875" width="11.6506" height="3.21396" transform="rotate(135 13.0676 178.875)" fill="#212121"/>
<path d="M14.2036 175.466C14.8312 176.094 14.8312 177.111 14.2036 177.739L13.6354 178.307L11.3628 176.034L11.931 175.466C12.5586 174.839 13.576 174.839 14.2036 175.466Z" fill="#212121"/>
<path d="M1.54021 187.484L2.55674 184.841L4.82935 187.113L2.18637 188.13C1.782 188.285 1.38468 187.888 1.54021 187.484Z" fill="#212121"/>
<path d="M26.3641 178.352V181.616H30.2041V183.104H26.3641V186.512H30.6841V188H24.5401V176.864H30.6841V178.352H26.3641ZM32.3227 183.552C32.3227 182.667 32.5041 181.883 32.8667 181.2C33.2401 180.517 33.7414 179.989 34.3707 179.616C35.0107 179.232 35.7201 179.04 36.4987 179.04C37.0747 179.04 37.6401 179.168 38.1947 179.424C38.7601 179.669 39.2081 180 39.5387 180.416V176.16H41.3787V188H39.5387V186.672C39.2401 187.099 38.8241 187.451 38.2907 187.728C37.7681 188.005 37.1654 188.144 36.4827 188.144C35.7147 188.144 35.0107 187.952 34.3707 187.568C33.7414 187.173 33.2401 186.629 32.8667 185.936C32.5041 185.232 32.3227 184.437 32.3227 183.552ZM39.5387 183.584C39.5387 182.976 39.4107 182.448 39.1547 182C38.9094 181.552 38.5841 181.211 38.1787 180.976C37.7734 180.741 37.3361 180.624 36.8667 180.624C36.3974 180.624 35.9601 180.741 35.5547 180.976C35.1494 181.2 34.8187 181.536 34.5627 181.984C34.3174 182.421 34.1947 182.944 34.1947 183.552C34.1947 184.16 34.3174 184.693 34.5627 185.152C34.8187 185.611 35.1494 185.963 35.5547 186.208C35.9707 186.443 36.4081 186.56 36.8667 186.56C37.3361 186.56 37.7734 186.443 38.1787 186.208C38.5841 185.973 38.9094 185.632 39.1547 185.184C39.4107 184.725 39.5387 184.192 39.5387 183.584ZM44.7025 178.016C44.3718 178.016 44.0945 177.904 43.8705 177.68C43.6465 177.456 43.5345 177.179 43.5345 176.848C43.5345 176.517 43.6465 176.24 43.8705 176.016C44.0945 175.792 44.3718 175.68 44.7025 175.68C45.0225 175.68 45.2945 175.792 45.5185 176.016C45.7425 176.24 45.8545 176.517 45.8545 176.848C45.8545 177.179 45.7425 177.456 45.5185 177.68C45.2945 177.904 45.0225 178.016 44.7025 178.016ZM45.5985 179.184V188H43.7745V179.184H45.5985ZM50.1212 180.672V185.552C50.1212 185.883 50.1959 186.123 50.3452 186.272C50.5052 186.411 50.7719 186.48 51.1452 186.48H52.2652V188H50.8252C50.0039 188 49.3746 187.808 48.9372 187.424C48.4999 187.04 48.2812 186.416 48.2812 185.552V180.672H47.2412V179.184H48.2812V176.992H50.1212V179.184H52.2652V180.672H50.1212ZM65.8786 180.192C65.8786 180.757 65.7453 181.291 65.4786 181.792C65.212 182.293 64.7853 182.704 64.1986 183.024C63.612 183.333 62.86 183.488 61.9426 183.488H59.9266V188H58.1026V176.88H61.9426C62.796 176.88 63.516 177.029 64.1026 177.328C64.7 177.616 65.1426 178.011 65.4306 178.512C65.7293 179.013 65.8786 179.573 65.8786 180.192ZM61.9426 182C62.636 182 63.1533 181.845 63.4946 181.536C63.836 181.216 64.0066 180.768 64.0066 180.192C64.0066 178.976 63.3186 178.368 61.9426 178.368H59.9266V182H61.9426ZM69.4422 180.464C69.7089 180.016 70.0609 179.669 70.4982 179.424C70.9462 179.168 71.4742 179.04 72.0822 179.04V180.928H71.6182C70.9036 180.928 70.3596 181.109 69.9862 181.472C69.6236 181.835 69.4422 182.464 69.4422 183.36V188H67.6182V179.184H69.4422V180.464ZM77.5829 188.144C76.7509 188.144 75.9989 187.957 75.3269 187.584C74.6549 187.2 74.1269 186.667 73.7429 185.984C73.3589 185.291 73.1669 184.491 73.1669 183.584C73.1669 182.688 73.3642 181.893 73.7589 181.2C74.1535 180.507 74.6922 179.973 75.3749 179.6C76.0575 179.227 76.8202 179.04 77.6629 179.04C78.5055 179.04 79.2682 179.227 79.9509 179.6C80.6335 179.973 81.1722 180.507 81.5669 181.2C81.9615 181.893 82.1589 182.688 82.1589 183.584C82.1589 184.48 81.9562 185.275 81.5509 185.968C81.1455 186.661 80.5909 187.2 79.8869 187.584C79.1935 187.957 78.4255 188.144 77.5829 188.144ZM77.5829 186.56C78.0522 186.56 78.4895 186.448 78.8949 186.224C79.3109 186 79.6469 185.664 79.9029 185.216C80.1589 184.768 80.2869 184.224 80.2869 183.584C80.2869 182.944 80.1642 182.405 79.9189 181.968C79.6735 181.52 79.3482 181.184 78.9429 180.96C78.5375 180.736 78.1002 180.624 77.6309 180.624C77.1615 180.624 76.7242 180.736 76.3189 180.96C75.9242 181.184 75.6095 181.52 75.3749 181.968C75.1402 182.405 75.0229 182.944 75.0229 183.584C75.0229 184.533 75.2629 185.269 75.7429 185.792C76.2335 186.304 76.8469 186.56 77.5829 186.56ZM87.658 180.672H86.026V188H84.186V180.672H83.146V179.184H84.186V178.56C84.186 177.547 84.4527 176.811 84.986 176.352C85.53 175.883 86.378 175.648 87.53 175.648V177.168C86.9753 177.168 86.586 177.275 86.362 177.488C86.138 177.691 86.026 178.048 86.026 178.56V179.184H87.658V180.672ZM90.2025 178.016C89.8718 178.016 89.5945 177.904 89.3705 177.68C89.1465 177.456 89.0345 177.179 89.0345 176.848C89.0345 176.517 89.1465 176.24 89.3705 176.016C89.5945 175.792 89.8718 175.68 90.2025 175.68C90.5225 175.68 90.7945 175.792 91.0185 176.016C91.2425 176.24 91.3545 176.517 91.3545 176.848C91.3545 177.179 91.2425 177.456 91.0185 177.68C90.7945 177.904 90.5225 178.016 90.2025 178.016ZM91.0985 179.184V188H89.2745V179.184H91.0985ZM95.3172 176.16V188H93.4932V176.16H95.3172ZM105.792 183.376C105.792 183.707 105.771 184.005 105.728 184.272H98.992C99.0453 184.976 99.3067 185.541 99.776 185.968C100.245 186.395 100.821 186.608 101.504 186.608C102.485 186.608 103.179 186.197 103.584 185.376H105.552C105.285 186.187 104.8 186.853 104.096 187.376C103.403 187.888 102.539 188.144 101.504 188.144C100.661 188.144 99.904 187.957 99.232 187.584C98.5707 187.2 98.048 186.667 97.664 185.984C97.2907 185.291 97.104 184.491 97.104 183.584C97.104 182.677 97.2853 181.883 97.648 181.2C98.0213 180.507 98.5387 179.973 99.2 179.6C99.872 179.227 100.64 179.04 101.504 179.04C102.336 179.04 103.077 179.221 103.728 179.584C104.379 179.947 104.885 180.459 105.248 181.12C105.611 181.771 105.792 182.523 105.792 183.376ZM103.888 182.8C103.877 182.128 103.637 181.589 103.168 181.184C102.699 180.779 102.117 180.576 101.424 180.576C100.795 180.576 100.256 180.779 99.808 181.184C99.36 181.579 99.0933 182.117 99.008 182.8H103.888Z" fill="#212121"/>
</g>
</svg>
